# Blender 4.3.2
# www.blender.org
mtllib 3dtiles.mtl
g T_Cube.002
v -2.000000 1.000000 -1.400000
v -2.000000 0.000000 -2.000000
v 0.000000 1.000000 -1.400000
v 0.000000 0.000000 -2.000000
v -2.000000 2.000000 -0.000000
v 0.000000 2.000000 0.000000
vn -0.0000 0.8137 -0.5812
vn -0.0000 0.5145 -0.8575
vt 0.625000 0.500000
vt 0.875000 0.750000
vt 0.625000 0.750000
vt 0.375000 0.750000
vt 0.375000 0.500000
vt 0.875000 0.500000
s 0
usemtl Material.002
f 1/1/1 6/2/1 3/3/1
f 1/1/2 4/4/2 2/5/2
f 1/1/1 5/6/1 6/2/1
f 1/1/2 3/3/2 4/4/2
g TL_Cube.003
v -3.000000 1.400000 -1.000000
v -4.000000 0.000000 -2.000000
v -2.000000 1.000000 -1.400000
v -2.000000 0.000000 -2.000000
v -3.400000 1.000000 -0.000000
v -4.000000 0.000000 -0.000000
v -2.000000 2.000000 0.000000
vn 0.0926 0.8102 -0.5787
vn -0.0000 0.5812 -0.8137
vn -0.8137 0.5812 -0.0000
vn -0.5787 0.8102 0.0926
vn -0.1359 0.5097 -0.8495
vn -0.8495 0.5097 -0.1359
vt 0.625000 0.500000
vt 0.875000 0.750000
vt 0.625000 0.750000
vt 0.375000 0.750000
vt 0.375000 0.500000
vt 0.375000 0.250000
vt 0.875000 0.500000
vt 0.625000 0.250000
s 0
usemtl Material.003
f 7/7/3 13/8/3 9/9/3
f 7/7/4 10/10/4 8/11/4
f 12/12/5 7/7/5 8/11/5
f 7/7/6 11/13/6 13/8/6
f 7/7/7 9/9/7 10/10/7
f 12/12/8 11/14/8 7/7/8
g BL_Cube.003
v -3.000000 1.400000 3.000000
v -4.000000 0.000000 4.000000
v -3.400000 1.000000 2.000000
v -4.000000 0.000000 2.000000
v -2.000000 1.000000 3.400000
v -2.000000 0.000000 4.000000
v -2.000000 2.000000 2.000000
vn -0.5787 0.8102 -0.0926
vn -0.8137 0.5812 -0.0000
vn -0.0000 0.5812 0.8137
vn 0.0926 0.8102 0.5787
vn -0.8495 0.5097 0.1359
vn -0.1359 0.5097 0.8495
vt 0.625000 0.500000
vt 0.875000 0.750000
vt 0.625000 0.750000
vt 0.375000 0.750000
vt 0.375000 0.500000
vt 0.375000 0.250000
vt 0.875000 0.500000
vt 0.625000 0.250000
s 0
usemtl Material.003
f 14/15/9 20/16/9 16/17/9
f 14/15/10 17/18/10 15/19/10
f 19/20/11 14/15/11 15/19/11
f 14/15/12 18/21/12 20/16/12
f 14/15/13 16/17/13 17/18/13
f 19/20/14 18/22/14 14/15/14
g TR_Cube.003
v 1.000000 1.400000 -1.000000
v 2.000000 0.000000 -2.000000
v 1.400000 1.000000 0.000000
v 2.000000 0.000000 0.000000
v 0.000000 1.000000 -1.400000
v 0.000000 0.000000 -2.000000
v 0.000000 2.000000 0.000000
vn 0.5787 0.8102 0.0926
vn 0.8137 0.5812 -0.0000
vn -0.0000 0.5812 -0.8137
vn -0.0926 0.8102 -0.5787
vn 0.8495 0.5097 -0.1359
vn 0.1359 0.5097 -0.8495
vt 0.625000 0.500000
vt 0.875000 0.750000
vt 0.625000 0.750000
vt 0.375000 0.750000
vt 0.375000 0.500000
vt 0.375000 0.250000
vt 0.875000 0.500000
vt 0.625000 0.250000
s 0
usemtl Material.003
f 21/23/15 27/24/15 23/25/15
f 21/23/16 24/26/16 22/27/16
f 26/28/17 21/23/17 22/27/17
f 21/23/18 25/29/18 27/24/18
f 21/23/19 23/25/19 24/26/19
f 26/28/20 25/30/20 21/23/20
g BR_Cube.003
v 1.000000 1.400000 3.000000
v 2.000000 0.000000 4.000000
v 0.000000 1.000000 3.400000
v 0.000000 0.000000 4.000000
v 1.400000 1.000000 2.000000
v 2.000000 0.000000 2.000000
v 0.000000 2.000000 2.000000
vn -0.0926 0.8102 0.5787
vn -0.0000 0.5812 0.8137
vn 0.8137 0.5812 -0.0000
vn 0.5787 0.8102 -0.0926
vn 0.1359 0.5097 0.8495
vn 0.8495 0.5097 0.1359
vt 0.625000 0.500000
vt 0.875000 0.750000
vt 0.625000 0.750000
vt 0.375000 0.750000
vt 0.375000 0.500000
vt 0.375000 0.250000
vt 0.875000 0.500000
vt 0.625000 0.250000
s 0
usemtl Material.003
f 28/31/21 34/32/21 30/33/21
f 28/31/22 31/34/22 29/35/22
f 33/36/23 28/31/23 29/35/23
f 28/31/24 32/37/24 34/32/24
f 28/31/25 30/33/25 31/34/25
f 33/36/26 32/38/26 28/31/26
g B_Cube.002
v 0.000000 1.000000 3.400000
v 0.000000 0.000000 4.000000
v -2.000000 1.000000 3.400000
v -2.000000 0.000000 4.000000
v 0.000000 2.000000 2.000000
v -2.000000 2.000000 2.000000
vn -0.0000 0.8137 0.5812
vn -0.0000 0.5145 0.8575
vt 0.625000 0.500000
vt 0.875000 0.750000
vt 0.625000 0.750000
vt 0.375000 0.750000
vt 0.375000 0.500000
vt 0.875000 0.500000
s 0
usemtl Material.002
f 35/39/27 40/40/27 37/41/27
f 35/39/28 38/42/28 36/43/28
f 35/39/27 39/44/27 40/40/27
f 35/39/28 37/41/28 38/42/28
g R_Cube.002
v 1.400000 1.000000 0.000000
v 2.000000 0.000000 0.000000
v 1.400000 1.000000 2.000000
v 2.000000 0.000000 2.000000
v 0.000000 2.000000 0.000000
v 0.000000 2.000000 2.000000
vn 0.5812 0.8137 -0.0000
vn 0.8575 0.5145 -0.0000
vt 0.625000 0.500000
vt 0.875000 0.750000
vt 0.625000 0.750000
vt 0.375000 0.750000
vt 0.375000 0.500000
vt 0.875000 0.500000
s 0
usemtl Material.002
f 41/45/29 46/46/29 43/47/29
f 41/45/30 44/48/30 42/49/30
f 41/45/29 45/50/29 46/46/29
f 41/45/30 43/47/30 44/48/30
g L_Cube.002
v -3.400000 1.000000 2.000000
v -4.000000 0.000000 2.000000
v -3.400000 1.000000 -0.000000
v -4.000000 0.000000 -0.000000
v -2.000000 2.000000 2.000000
v -2.000000 2.000000 0.000000
vn -0.5812 0.8137 -0.0000
vn -0.8575 0.5145 -0.0000
vt 0.625000 0.500000
vt 0.875000 0.750000
vt 0.625000 0.750000
vt 0.375000 0.750000
vt 0.375000 0.500000
vt 0.875000 0.500000
s 0
usemtl Material.002
f 47/51/31 52/52/31 49/53/31
f 47/51/32 50/54/32 48/55/32
f 47/51/31 51/56/31 52/52/31
f 47/51/32 49/53/32 50/54/32
g C_Cube.001
v -2.000000 2.000000 2.000000
v -2.000000 2.000000 0.000000
v -0.000000 2.000000 2.000000
v 0.000000 2.000000 0.000000
vn -0.0000 -1.0000 -0.0000
vt 0.000000 0.000000
s 0
usemtl Material.001
f 53/57/33 56/57/33 55/57/33
f 56/57/33 53/57/33 54/57/33
